<svg width="79" height="119" viewBox="0 0 79 119" fill="none" xmlns="http://www.w3.org/2000/svg">
<rect width="80" height="90" rx="8" fill="url(#paint0_linear_105_99)"/>
<circle cx="40" cy="79" r="40" fill="white" fill-opacity="0.06"/>
<circle cx="79.5" cy="33.5" r="33.5" fill="white" fill-opacity="0.08"/>
<path d="M46.5689 37.5316C45.8883 35.4456 46.3658 33.2013 47.098 31.1328C47.1834 30.8918 47.1561 30.623 47.0195 30.4032C46.8644 30.1527 46.5914 30 46.2968 30H32.7151C32.4206 30 32.1476 30.1527 31.9924 30.4032C31.8373 30.6538 31.8232 30.9666 31.9551 31.2296C32.8977 33.114 33.0918 35.3237 32.5086 37.3292C31.9469 39.1015 31.1246 40.7169 30.3289 42.2785C30.0839 42.7591 29.844 43.2327 29.6128 43.7045L33.4412 45.6189C37.185 47.4908 41.8148 47.4908 45.5585 45.6189L49.3964 43.7001C49.1682 43.2357 48.9312 42.77 48.6899 42.2976C47.9217 40.7962 47.1269 39.2421 46.5689 37.5316ZM39.4998 45.3501C39.0305 45.3501 38.6501 44.9697 38.6501 44.5004C38.6501 44.0311 39.0305 43.6508 39.4998 43.6508C39.969 43.6508 40.3494 44.0311 40.3494 44.5004C40.3494 44.9697 39.969 45.3501 39.4998 45.3501Z" fill="white"/>
<path d="M25.8496 36.8536H27.2537L27.0048 37.1025C26.6729 37.4344 26.6729 37.9721 27.0048 38.304C27.3367 38.6358 27.8744 38.6358 28.2062 38.304L29.9055 36.6047C30.2374 36.2728 30.2374 35.7351 29.9055 35.4032L28.2062 33.704C27.8744 33.3721 27.3367 33.3721 27.0048 33.704C26.6729 34.0358 26.6729 34.5736 27.0048 34.9054L27.2537 35.1543H25.8496C25.38 35.1543 25 35.5343 25 36.0039C25 36.4736 25.38 36.8536 25.8496 36.8536Z" fill="white"/>
<path d="M53.1505 35.1544H51.7464L51.9953 34.9054C52.3272 34.5736 52.3272 34.0358 51.9953 33.704C51.6634 33.3721 51.1257 33.3721 50.7939 33.704L49.0946 35.4032C48.7627 35.7351 48.7627 36.2728 49.0946 36.6047L50.7939 38.304C51.1257 38.6358 51.6634 38.6358 51.9953 38.304C52.3272 37.9721 52.3272 37.4344 51.9953 37.1025L51.7464 36.8536H53.1505C53.6201 36.8536 54.0001 36.4736 54.0001 36.004C54.0001 35.5344 53.6201 35.1544 53.1505 35.1544Z" fill="white"/>
<path d="M50.1035 45.2468L46.3191 47.1389C44.2125 48.1918 41.8553 48.7486 39.5005 48.7486C37.1458 48.7486 34.7886 48.1918 32.6819 47.1389L28.9083 45.252C28.5584 46.0781 28.254 46.9135 28.0454 47.7902C27.8255 48.7138 27.6843 49.6482 27.6025 50.5859C31.6316 49.7062 35.1787 50.8716 38.402 54.0953C38.7372 54.3666 40.2647 54.3674 40.6049 54.0894C42.8764 51.8168 46.2371 49.4284 51.4112 50.5937C51.3295 49.6533 51.1886 48.7162 50.9681 47.7902C50.7581 46.9072 50.4533 46.071 50.1035 45.2468Z" fill="white"/>
<path d="M41.8004 55.2969C41.6483 55.449 41.4346 55.5668 41.1997 55.6689V58.1514C41.1997 58.6206 41.5801 59.001 42.0493 59.001H49.6961C50.055 59.001 50.3839 58.7727 50.4977 58.4322C51.1493 56.4814 51.4446 54.3952 51.4552 52.3605C46.885 51.1802 43.9521 53.1452 41.8004 55.2969Z" fill="white"/>
<path d="M27.5586 52.3396C27.567 54.3813 27.8617 56.4748 28.5157 58.4324C28.6294 58.7728 28.9583 59.0011 29.3173 59.0011H36.9515C37.4208 59.0011 37.8012 58.6207 37.8012 58.1515V55.669C37.5663 55.5669 37.3526 55.4491 37.2005 55.297C35.0064 53.103 32.0705 51.1836 27.5586 52.3396Z" fill="white"/>
<defs>
<linearGradient id="paint0_linear_105_99" x1="2.19838e-06" y1="5" x2="80" y2="90" gradientUnits="userSpaceOnUse">
<stop stop-color="#FF484C"/>
<stop offset="1" stop-color="#FF6C60"/>
</linearGradient>
</defs>
</svg>
