<svg width="10" height="10" viewBox="0 0 10 10" fill="none" xmlns="http://www.w3.org/2000/svg">
<path d="M4.56003 2.38908L4.99999 3.20398L5.43997 2.38909C5.58634 2.11799 5.82667 1.76251 6.17355 1.49062L5.86885 1.10189L6.17355 1.49062C6.52659 1.21389 6.91613 1.0791 7.34375 1.0791C8.53841 1.0791 9.5 2.06498 9.5 3.49915C9.5 4.24669 9.21062 4.89555 8.63103 5.60436C8.03876 6.32868 7.18166 7.07112 6.09199 8.01227L6.09198 8.01227L6.0916 8.0126C5.76102 8.29813 5.38873 8.61969 5.00001 8.96266C4.61164 8.62001 4.23964 8.29871 3.90946 8.01351L3.90826 8.01247L3.90825 8.01247C2.81845 7.07122 1.9613 6.32873 1.369 5.60438C0.789382 4.89554 0.5 4.24669 0.5 3.49915C0.5 2.06498 1.46159 1.0791 2.65625 1.0791C3.08386 1.0791 3.47341 1.21389 3.82645 1.49062L4.10293 1.13789L3.82645 1.49062C4.17333 1.76251 4.41366 2.11798 4.56003 2.38908Z" stroke="#777EA5"/>
</svg>
