<svg width="113" height="119" viewBox="0 0 113 119" fill="none" xmlns="http://www.w3.org/2000/svg">
<rect width="80" height="90" rx="8" fill="url(#paint0_linear_105_92)"/>
<circle cx="40" cy="79" r="40" fill="white" fill-opacity="0.06"/>
<circle cx="79.5" cy="33.5" r="33.5" fill="white" fill-opacity="0.08"/>
<path d="M40 32C31.5933 32 23.9697 36.5724 18.3443 43.9991C17.8852 44.6075 17.8852 45.4576 18.3443 46.066C23.9697 53.5017 31.5933 58.0741 40 58.0741C48.4067 58.0741 56.0303 53.5017 61.6557 46.075C62.1148 45.4665 62.1148 44.6165 61.6557 44.008C56.0303 36.5724 48.4067 32 40 32ZM40.603 54.2175C35.0226 54.5665 30.4142 49.9942 30.7653 44.4375C31.0533 39.8562 34.7886 36.1429 39.397 35.8565C44.9774 35.5076 49.5858 40.0799 49.2347 45.6365C48.9377 50.2089 45.2024 53.9223 40.603 54.2175ZM40.324 49.9763C37.3178 50.1642 34.8336 47.7035 35.0316 44.7149C35.1846 42.2453 37.2008 40.2499 39.685 40.0889C42.6912 39.901 45.1754 42.3616 44.9774 45.3502C44.8154 47.8288 42.7992 49.8241 40.324 49.9763Z" fill="white"/>
<defs>
<linearGradient id="paint0_linear_105_92" x1="0" y1="0" x2="73" y2="85" gradientUnits="userSpaceOnUse">
<stop offset="0.286458" stop-color="#FE7F44"/>
<stop offset="1" stop-color="#FFCF68"/>
</linearGradient>
</defs>
</svg>
