<svg width="23" height="20" viewBox="0 0 23 20" fill="none" xmlns="http://www.w3.org/2000/svg">
<path d="M16.7328 0C15.4964 0 14.3628 0.389557 13.3637 1.15788C12.4058 1.89447 11.768 2.83265 11.3925 3.51487C11.0171 2.83261 10.3793 1.89447 9.4214 1.15788C8.42224 0.389557 7.28869 0 6.05228 0C2.60195 0 0 2.80606 0 6.52717C0 10.5473 3.24612 13.2977 8.1603 17.4616C8.99481 18.1687 9.9407 18.9702 10.9238 19.825C11.0534 19.9379 11.2199 20 11.3925 20C11.5652 20 11.7316 19.9379 11.8612 19.8251C12.8445 18.9701 13.7903 18.1687 14.6253 17.4612C19.539 13.2977 22.7851 10.5473 22.7851 6.52717C22.7851 2.80606 20.1831 0 16.7328 0Z" fill="#858EA9"/>
</svg>
