<svg width="113" height="119" viewBox="0 0 113 119" fill="none" xmlns="http://www.w3.org/2000/svg">
<rect width="80" height="90" rx="8" fill="url(#paint0_linear_105_77)"/>
<circle cx="40" cy="79" r="40" fill="white" fill-opacity="0.08"/>
<circle cx="79.5" cy="33.5" r="33.5" fill="white" fill-opacity="0.1"/>
<path d="M50.5267 47.6247L49.2344 49.5722L47.6342 41.5698L46.4102 45.0101C46.5982 45.5481 46.9219 46.5624 47.1729 47.7852L47.4088 47.1279L48.4297 52.2306L51.0692 48.9352H59.3166V47.6247H50.5267Z" fill="white"/>
<path d="M34.1407 33.4645C34.6243 33.2279 35.1295 33.0366 35.6504 32.8911L35.1596 26.5067C35.1334 26.1639 34.7638 25.9215 34.4395 26.0276L33.7737 26.2498C33.374 26.3828 33.106 26.755 33.106 27.1757C33.106 27.2294 33.1105 27.2832 33.1191 27.3369L34.1407 33.4645Z" fill="white"/>
<path d="M35.3384 39.1058C36.7079 39.1058 38.0519 38.6347 39.122 37.7788C40.1501 36.9565 41.3801 36.4073 42.6782 36.1911L43.3656 36.0764C41.9921 34.6997 40.0964 33.8635 38.027 33.8635C35.569 33.8635 33.2605 35.0653 31.8516 37.0797C31.6983 37.2992 31.5548 37.5239 31.4185 37.7513C32.4944 38.6261 33.8292 39.1058 35.2309 39.1058H35.3384Z" fill="white"/>
<path d="M20.424 34.326L23.1218 35.6746C24.0523 36.1399 24.7357 36.9564 25.049 37.9255C25.4932 37.8443 25.9474 37.7951 26.4139 37.7951H26.4998C27.0129 37.7951 27.5279 37.8462 28.0299 37.9465L29.6589 38.2722C29.9636 37.611 30.3299 36.9747 30.7512 36.3679L29.3955 35.0121C28.8431 34.4597 28.5056 33.7265 28.4453 32.9467L27.9532 26.5478C27.9257 26.192 27.5574 25.9292 27.2186 26.017L25.8432 26.3604C25.4893 26.4502 25.2423 26.7667 25.2423 27.1323C25.2423 27.1979 25.2501 27.2621 25.2659 27.3243L26.3327 31.5909C26.5253 32.3641 26.1629 33.1524 25.45 33.5089C24.8753 33.7966 24.1984 33.7356 23.6834 33.349L21.975 32.0679C21.5989 31.7875 21.0131 31.8864 20.7523 32.2776L20.1284 33.2127C20.0446 33.3398 20 33.4866 20 33.6393C20 33.9316 20.1625 34.195 20.424 34.326Z" fill="white"/>
<path d="M24.8075 47.6242C26.8886 47.6242 28.5183 45.9663 28.5183 43.8491V43.4939C28.5183 42.125 28.7385 40.7837 29.1671 39.5104L27.7726 39.2313C27.3546 39.1481 26.926 39.1055 26.4994 39.1055H26.4136C22.9641 39.1055 20.1418 41.9022 20.0049 45.3923L20.4197 45.8071C21.592 46.9787 23.1502 47.6242 24.8075 47.6242Z" fill="white"/>
<path d="M39.3687 32.6616L40.9066 28.0477C40.9486 27.9232 40.9695 27.7922 40.9695 27.6611C40.9695 27.2509 40.7657 26.8702 40.4243 26.6428L39.5823 26.0812C39.3051 25.8964 38.8903 26.0753 38.8359 26.4049L37.8091 32.5666C37.8825 32.5646 37.9539 32.5528 38.0273 32.5528C38.4834 32.5528 38.9296 32.5947 39.3687 32.6616Z" fill="white"/>
<path d="M45.3985 31.1943C45.5007 31.0718 45.5564 30.9171 45.5564 30.7579C45.5564 30.4977 45.4123 30.2644 45.1796 30.1478L44.9582 30.0371C44.5093 29.8123 43.9254 29.9761 43.6594 30.4027L41.7925 33.3895C42.2125 33.5867 42.6129 33.82 42.9943 34.0789L45.3985 31.1943Z" fill="white"/>
<path d="M35.0718 50.2454C36.1575 50.2454 37.0377 49.3653 37.0377 48.2796C37.0377 47.1939 36.1575 46.3137 35.0718 46.3137C33.9861 46.3137 33.106 47.1939 33.106 48.2796C33.106 49.3653 33.9861 50.2454 35.0718 50.2454Z" fill="white"/>
<path d="M41.642 45.3202L40.8386 48.9348H38.2811C37.9764 50.4282 36.6533 51.5559 35.0708 51.5559C33.2642 51.5559 31.7944 50.0861 31.7944 48.2795C31.7944 46.4729 33.2642 45.0031 35.0708 45.0031C36.6527 45.0031 37.9764 46.1308 38.2811 47.6242H39.7876L41.6053 39.4437L44.3064 50.9223L46.4099 45.0096C46.3201 44.7521 46.2598 44.5981 46.2572 44.5916L46.2205 44.4625L45.4492 40.0924C45.2644 39.0466 44.866 38.0879 44.3116 37.2478L42.893 37.4844C41.815 37.6639 40.7941 38.12 39.9402 38.8028C38.6382 39.8427 37.0039 40.4161 35.3375 40.4161H35.2294C33.6161 40.4161 32.0775 39.8912 30.8069 38.9338C30.168 40.3604 29.8285 41.9049 29.8285 43.494V43.8491C29.8285 46.6538 27.5757 48.9348 24.8071 48.9348C23.0673 48.9348 21.418 48.3477 20.0845 47.2671C20.42 50.3024 21.7351 53.1679 23.8733 55.4706C26.7225 58.5393 30.2833 60.9855 34.1711 62.5457L37.4534 63.8609C38.0242 64.0889 38.7168 64.0476 39.1978 63.6558L39.5228 63.3904C43.4388 60.1854 46.2768 55.7242 47.5212 50.8207C47.514 49.7709 47.3653 48.7192 47.1733 47.7841L44.1839 56.122L41.642 45.3202Z" fill="white"/>
<defs>
<linearGradient id="paint0_linear_105_77" x1="-1.93404e-07" y1="4.61539" x2="87.9791" y2="19.8316" gradientUnits="userSpaceOnUse">
<stop stop-color="#0EBE7E"/>
<stop offset="1" stop-color="#07D9AD"/>
</linearGradient>
</defs>
</svg>
