<svg width="41" height="18" viewBox="0 0 41 18" fill="none" xmlns="http://www.w3.org/2000/svg">
<rect width="40.32" height="17.92" rx="3" fill="#FA002F"/>
<path d="M16.372 12C16.3253 12 16.2857 11.9837 16.253 11.951C16.2203 11.9183 16.204 11.8787 16.204 11.832V7.268C16.204 7.21667 16.2203 7.177 16.253 7.149C16.2857 7.11633 16.3253 7.1 16.372 7.1H17.023C17.0743 7.1 17.114 7.11633 17.142 7.149C17.1747 7.177 17.191 7.21667 17.191 7.268V11.167H19.41C19.4613 11.167 19.5033 11.1833 19.536 11.216C19.5687 11.2487 19.585 11.2907 19.585 11.342V11.832C19.585 11.8833 19.5687 11.9253 19.536 11.958C19.5033 11.986 19.4613 12 19.41 12H16.372ZM20.1326 12C20.0859 12 20.0462 11.9837 20.0136 11.951C19.9809 11.9183 19.9646 11.8787 19.9646 11.832V7.268C19.9646 7.21667 19.9809 7.177 20.0136 7.149C20.0462 7.11633 20.0859 7.1 20.1326 7.1H20.7906C20.8419 7.1 20.8816 7.11633 20.9096 7.149C20.9422 7.177 20.9586 7.21667 20.9586 7.268V11.832C20.9586 11.8787 20.9422 11.9183 20.9096 11.951C20.8816 11.9837 20.8419 12 20.7906 12H20.1326ZM23.1844 12C23.049 12 22.9604 11.9347 22.9184 11.804L21.4204 7.31L21.4064 7.247C21.4064 7.205 21.4204 7.17 21.4484 7.142C21.4764 7.114 21.5114 7.1 21.5534 7.1H22.1694C22.23 7.1 22.2767 7.11633 22.3094 7.149C22.3467 7.177 22.3724 7.212 22.3864 7.254L23.5694 10.859L24.7524 7.254C24.7617 7.21667 24.785 7.18167 24.8224 7.149C24.8597 7.11633 24.9087 7.1 24.9694 7.1H25.5854C25.6227 7.1 25.6554 7.114 25.6834 7.142C25.716 7.17 25.7324 7.205 25.7324 7.247L25.7184 7.31L24.2204 11.804C24.1784 11.9347 24.0897 12 23.9544 12H23.1844ZM26.3411 12C26.2945 12 26.2548 11.9837 26.2221 11.951C26.1895 11.9183 26.1731 11.8787 26.1731 11.832V7.275C26.1731 7.22367 26.1871 7.18167 26.2151 7.149C26.2478 7.11633 26.2898 7.1 26.3411 7.1H29.4211C29.4725 7.1 29.5145 7.11633 29.5471 7.149C29.5798 7.18167 29.5961 7.22367 29.5961 7.275V7.737C29.5961 7.78833 29.5798 7.83033 29.5471 7.863C29.5145 7.891 29.4725 7.905 29.4211 7.905H27.1181V9.144H29.2671C29.3185 9.144 29.3605 9.16033 29.3931 9.193C29.4258 9.221 29.4421 9.26067 29.4421 9.312V9.746C29.4421 9.79733 29.4258 9.83933 29.3931 9.872C29.3605 9.9 29.3185 9.914 29.2671 9.914H27.1181V11.195H29.4771C29.5285 11.195 29.5705 11.2113 29.6031 11.244C29.6358 11.2767 29.6521 11.3187 29.6521 11.37V11.832C29.6521 11.8833 29.6358 11.9253 29.6031 11.958C29.5705 11.986 29.5285 12 29.4771 12H26.3411Z" fill="white"/>
<circle cx="9.8" cy="9.8" r="2.8" fill="white"/>
</svg>
