<svg width="10" height="8" viewBox="0 0 10 8" fill="none" xmlns="http://www.w3.org/2000/svg">
<path d="M7.34375 0C6.80111 0 6.30361 0.155823 5.8651 0.46315C5.44469 0.757788 5.16479 1.13306 5 1.40595C4.83521 1.13304 4.55531 0.757788 4.1349 0.46315C3.69639 0.155823 3.19889 0 2.65625 0C1.14195 0 0 1.12242 0 2.61087C0 4.2189 1.42467 5.3191 3.58143 6.98464C3.94768 7.26749 4.36281 7.58809 4.7943 7.93002C4.85117 7.97515 4.92422 8 5 8C5.07578 8 5.14883 7.97515 5.2057 7.93004C5.63723 7.58805 6.05234 7.26747 6.41881 6.98446C8.57533 5.3191 10 4.2189 10 2.61087C10 1.12242 8.85805 0 7.34375 0Z" fill="#FF0000"/>
</svg>
