<svg width="205" height="106" viewBox="0 0 205 106" fill="none" xmlns="http://www.w3.org/2000/svg">
<g clip-path="url(#clip0_3_181)">
<path d="M132.951 16.4914H121.509V5.04886C121.509 2.26596 119.243 0 116.46 0H89.5364C86.7535 0 84.4875 2.26596 84.4875 5.04886V16.4914H73.0489C70.266 16.4914 68 18.7535 68 21.5403V48.4636C68 51.2465 70.266 53.5125 73.0489 53.5125H84.4914V64.955C84.4914 67.7379 86.7535 70.0039 89.5403 70.0039H116.464C119.247 70.0039 121.512 67.7379 121.512 64.955V53.5125H132.955C135.738 53.5125 138.004 51.2465 138.004 48.4636V21.5403C138 18.7535 135.734 16.4914 132.951 16.4914ZM132.613 48.1255H121.509V27.2576H116.125V64.613H89.8745V53.5086H110.738V48.1255H73.3831V21.8745H84.4875V42.7385H89.8706V5.38312H116.118V16.4875H95.2615V21.8706H132.617V48.1255H132.613Z" fill="url(#paint0_linear_3_181)"/>
</g>
<path d="M29.7271 105C29.5604 105 29.4104 104.942 29.2771 104.825C29.1604 104.692 29.1021 104.542 29.1021 104.375V88.125C29.1021 87.9417 29.1604 87.7917 29.2771 87.675C29.4104 87.5583 29.5604 87.5 29.7271 87.5H36.2271C38.6771 87.5 40.5771 88.0833 41.9271 89.25C43.2771 90.4167 43.9854 92.1083 44.0521 94.325C44.0687 94.8083 44.0771 95.45 44.0771 96.25C44.0771 97.05 44.0687 97.6833 44.0521 98.15C43.9687 100.467 43.2771 102.192 41.9771 103.325C40.6937 104.442 38.8187 105 36.3521 105H29.7271ZM36.2271 101.4C37.3271 101.4 38.1354 101.142 38.6521 100.625C39.1687 100.092 39.4437 99.25 39.4771 98.1C39.5104 97.6167 39.5271 96.9917 39.5271 96.225C39.5271 95.4583 39.5104 94.8417 39.4771 94.375C39.4437 93.2583 39.1437 92.4333 38.5771 91.9C38.0271 91.3667 37.2021 91.1 36.1021 91.1H33.6021V101.4H36.2271ZM52.5726 105.25C50.5059 105.25 48.9142 104.758 47.7976 103.775C46.6809 102.792 46.0726 101.408 45.9726 99.625C45.9559 99.4083 45.9476 99.0333 45.9476 98.5C45.9476 97.9667 45.9559 97.5917 45.9726 97.375C46.0726 95.6083 46.6976 94.2333 47.8476 93.25C48.9976 92.25 50.5726 91.75 52.5726 91.75C54.5892 91.75 56.1726 92.25 57.3226 93.25C58.4726 94.2333 59.0976 95.6083 59.1976 97.375C59.2142 97.5917 59.2226 97.9667 59.2226 98.5C59.2226 99.0333 59.2142 99.4083 59.1976 99.625C59.0976 101.408 58.4892 102.792 57.3726 103.775C56.2559 104.758 54.6559 105.25 52.5726 105.25ZM52.5726 102.2C53.3059 102.2 53.8476 101.983 54.1976 101.55C54.5476 101.1 54.7476 100.417 54.7976 99.5C54.8142 99.3333 54.8226 99 54.8226 98.5C54.8226 98 54.8142 97.6667 54.7976 97.5C54.7476 96.6 54.5392 95.925 54.1726 95.475C53.8226 95.025 53.2892 94.8 52.5726 94.8C51.1892 94.8 50.4559 95.7 50.3726 97.5L50.3476 98.5L50.3726 99.5C50.4059 100.417 50.5976 101.1 50.9476 101.55C51.3142 101.983 51.8559 102.2 52.5726 102.2ZM67.3808 105.25C65.4974 105.25 63.9724 104.75 62.8058 103.75C61.6391 102.733 61.0141 101.325 60.9308 99.525L60.9058 98.525L60.9308 97.5C60.9974 95.7 61.6141 94.2917 62.7808 93.275C63.9641 92.2583 65.4974 91.75 67.3808 91.75C68.7974 91.75 69.9891 92.0083 70.9558 92.525C71.9391 93.025 72.6641 93.6333 73.1308 94.35C73.6141 95.05 73.8724 95.6917 73.9058 96.275C73.9224 96.4417 73.8641 96.5917 73.7308 96.725C73.6141 96.8417 73.4641 96.9 73.2808 96.9H70.1058C69.9224 96.9 69.7808 96.8583 69.6808 96.775C69.5808 96.6917 69.4891 96.5667 69.4058 96.4C69.2058 95.8833 68.9474 95.5167 68.6308 95.3C68.3308 95.0833 67.9391 94.975 67.4558 94.975C66.0891 94.975 65.3808 95.8583 65.3308 97.625L65.3058 98.575L65.3308 99.4C65.3641 100.3 65.5558 100.967 65.9058 101.4C66.2724 101.817 66.7891 102.025 67.4558 102.025C67.9724 102.025 68.3808 101.917 68.6808 101.7C68.9808 101.483 69.2224 101.117 69.4058 100.6C69.4891 100.433 69.5808 100.308 69.6808 100.225C69.7808 100.142 69.9224 100.1 70.1058 100.1H73.2808C73.4474 100.1 73.5891 100.158 73.7058 100.275C73.8391 100.375 73.9058 100.508 73.9058 100.675C73.9058 101.208 73.6724 101.833 73.2058 102.55C72.7558 103.267 72.0391 103.9 71.0558 104.45C70.0724 104.983 68.8474 105.25 67.3808 105.25ZM82.5019 105C79.0519 105 77.3269 103.358 77.3269 100.075V95.275H75.3769C75.1935 95.275 75.0352 95.2167 74.9019 95.1C74.7852 94.9833 74.7269 94.8333 74.7269 94.65V92.625C74.7269 92.4417 74.7852 92.2917 74.9019 92.175C75.0352 92.0583 75.1935 92 75.3769 92H77.3269V87.875C77.3269 87.6917 77.3852 87.5417 77.5019 87.425C77.6352 87.3083 77.7852 87.25 77.9519 87.25H80.8519C81.0352 87.25 81.1852 87.3083 81.3019 87.425C81.4185 87.5417 81.4769 87.6917 81.4769 87.875V92H84.6019C84.7852 92 84.9352 92.0583 85.0519 92.175C85.1852 92.2917 85.2519 92.4417 85.2519 92.625V94.65C85.2519 94.8333 85.1852 94.9833 85.0519 95.1C84.9352 95.2167 84.7852 95.275 84.6019 95.275H81.4769V99.725C81.4769 100.958 81.9519 101.575 82.9019 101.575H84.8269C85.0102 101.575 85.1602 101.633 85.2769 101.75C85.3935 101.867 85.4519 102.017 85.4519 102.2V104.375C85.4519 104.542 85.3935 104.692 85.2769 104.825C85.1602 104.942 85.0102 105 84.8269 105H82.5019ZM93.3718 105.25C91.3051 105.25 89.7134 104.758 88.5968 103.775C87.4801 102.792 86.8718 101.408 86.7718 99.625C86.7551 99.4083 86.7468 99.0333 86.7468 98.5C86.7468 97.9667 86.7551 97.5917 86.7718 97.375C86.8718 95.6083 87.4968 94.2333 88.6468 93.25C89.7968 92.25 91.3718 91.75 93.3718 91.75C95.3884 91.75 96.9718 92.25 98.1218 93.25C99.2718 94.2333 99.8968 95.6083 99.9968 97.375C100.013 97.5917 100.022 97.9667 100.022 98.5C100.022 99.0333 100.013 99.4083 99.9968 99.625C99.8968 101.408 99.2884 102.792 98.1718 103.775C97.0551 104.758 95.4551 105.25 93.3718 105.25ZM93.3718 102.2C94.1051 102.2 94.6468 101.983 94.9968 101.55C95.3468 101.1 95.5468 100.417 95.5968 99.5C95.6134 99.3333 95.6218 99 95.6218 98.5C95.6218 98 95.6134 97.6667 95.5968 97.5C95.5468 96.6 95.3384 95.925 94.9718 95.475C94.6218 95.025 94.0884 94.8 93.3718 94.8C91.9884 94.8 91.2551 95.7 91.1718 97.5L91.1468 98.5L91.1718 99.5C91.2051 100.417 91.3968 101.1 91.7468 101.55C92.1134 101.983 92.6551 102.2 93.3718 102.2ZM102.83 105C102.647 105 102.497 104.942 102.38 104.825C102.263 104.708 102.205 104.558 102.205 104.375V92.625C102.205 92.4417 102.263 92.2917 102.38 92.175C102.497 92.0583 102.647 92 102.83 92H105.705C105.888 92 106.038 92.0667 106.155 92.2C106.288 92.3167 106.355 92.4583 106.355 92.625V93.625C107.272 92.5417 108.505 92 110.055 92H111.155C111.338 92 111.488 92.0583 111.605 92.175C111.722 92.2917 111.78 92.4417 111.78 92.625V95.2C111.78 95.3667 111.722 95.5167 111.605 95.65C111.488 95.7667 111.338 95.825 111.155 95.825H108.73C108.047 95.825 107.513 96.0167 107.13 96.4C106.763 96.7667 106.58 97.2917 106.58 97.975V104.375C106.58 104.558 106.513 104.708 106.38 104.825C106.263 104.942 106.113 105 105.93 105H102.83ZM118.692 105C118.508 105 118.358 104.942 118.242 104.825C118.125 104.708 118.067 104.558 118.067 104.375V88.125C118.067 87.9417 118.125 87.7917 118.242 87.675C118.375 87.5583 118.525 87.5 118.692 87.5H121.917C122.1 87.5 122.25 87.5583 122.367 87.675C122.5 87.7917 122.567 87.9417 122.567 88.125V94.15H128.717V88.125C128.717 87.9417 128.775 87.7917 128.892 87.675C129.008 87.5583 129.158 87.5 129.342 87.5H132.567C132.75 87.5 132.9 87.5583 133.017 87.675C133.133 87.7917 133.192 87.9417 133.192 88.125V104.375C133.192 104.558 133.133 104.708 133.017 104.825C132.9 104.942 132.75 105 132.567 105H129.342C129.158 105 129.008 104.942 128.892 104.825C128.775 104.708 128.717 104.558 128.717 104.375V98.15H122.567V104.375C122.567 104.558 122.5 104.708 122.367 104.825C122.25 104.942 122.1 105 121.917 105H118.692ZM140.894 105.25C139.428 105.25 138.244 104.758 137.344 103.775C136.444 102.775 135.994 101.383 135.994 99.6V92.625C135.994 92.4417 136.053 92.2917 136.169 92.175C136.286 92.0583 136.436 92 136.619 92H139.744C139.928 92 140.078 92.0583 140.194 92.175C140.328 92.2917 140.394 92.4417 140.394 92.625V99.45C140.394 101.083 141.119 101.9 142.569 101.9C143.269 101.9 143.819 101.683 144.219 101.25C144.619 100.817 144.819 100.217 144.819 99.45V92.625C144.819 92.4417 144.878 92.2917 144.994 92.175C145.128 92.0583 145.278 92 145.444 92H148.569C148.753 92 148.903 92.0583 149.019 92.175C149.136 92.2917 149.194 92.4417 149.194 92.625V104.375C149.194 104.542 149.136 104.692 149.019 104.825C148.903 104.942 148.753 105 148.569 105H145.669C145.503 105 145.353 104.942 145.219 104.825C145.103 104.692 145.044 104.542 145.044 104.375V103.425C144.178 104.642 142.794 105.25 140.894 105.25ZM152.46 105C152.277 105 152.127 104.942 152.01 104.825C151.893 104.708 151.835 104.558 151.835 104.375V92.625C151.835 92.4417 151.893 92.2917 152.01 92.175C152.127 92.0583 152.277 92 152.46 92H155.335C155.518 92 155.668 92.0583 155.785 92.175C155.918 92.2917 155.985 92.4417 155.985 92.625V93.575C156.435 93.025 157.01 92.5833 157.71 92.25C158.427 91.9167 159.235 91.75 160.135 91.75C161.602 91.75 162.793 92.25 163.71 93.25C164.627 94.2333 165.085 95.6167 165.085 97.4V104.375C165.085 104.542 165.027 104.692 164.91 104.825C164.793 104.942 164.643 105 164.46 105H161.31C161.143 105 160.993 104.942 160.86 104.825C160.743 104.692 160.685 104.542 160.685 104.375V97.55C160.685 96.7667 160.493 96.1667 160.11 95.75C159.727 95.3167 159.177 95.1 158.46 95.1C157.76 95.1 157.21 95.3167 156.81 95.75C156.41 96.1667 156.21 96.7667 156.21 97.55V104.375C156.21 104.542 156.152 104.692 156.035 104.825C155.918 104.942 155.768 105 155.585 105H152.46ZM174.103 105C170.653 105 168.928 103.358 168.928 100.075V95.275H166.978C166.795 95.275 166.636 95.2167 166.503 95.1C166.386 94.9833 166.328 94.8333 166.328 94.65V92.625C166.328 92.4417 166.386 92.2917 166.503 92.175C166.636 92.0583 166.795 92 166.978 92H168.928V87.875C168.928 87.6917 168.986 87.5417 169.103 87.425C169.236 87.3083 169.386 87.25 169.553 87.25H172.453C172.636 87.25 172.786 87.3083 172.903 87.425C173.02 87.5417 173.078 87.6917 173.078 87.875V92H176.203C176.386 92 176.536 92.0583 176.653 92.175C176.786 92.2917 176.853 92.4417 176.853 92.625V94.65C176.853 94.8333 176.786 94.9833 176.653 95.1C176.536 95.2167 176.386 95.275 176.203 95.275H173.078V99.725C173.078 100.958 173.553 101.575 174.503 101.575H176.428C176.611 101.575 176.761 101.633 176.878 101.75C176.995 101.867 177.053 102.017 177.053 102.2V104.375C177.053 104.542 176.995 104.692 176.878 104.825C176.761 104.942 176.611 105 176.428 105H174.103Z" fill="#222222"/>
<defs>
<linearGradient id="paint0_linear_3_181" x1="68" y1="3.58994" x2="144.397" y2="18.4545" gradientUnits="userSpaceOnUse">
<stop stop-color="#0EBE7E"/>
<stop offset="1" stop-color="#07D9AD"/>
</linearGradient>
<clipPath id="clip0_3_181">
<rect width="70" height="70" fill="white" transform="translate(68)"/>
</clipPath>
</defs>
</svg>
