<svg width="113" height="119" viewBox="0 0 113 119" fill="none" xmlns="http://www.w3.org/2000/svg">
<rect width="80" height="90" rx="8" fill="url(#paint0_linear_105_70)"/>
<circle cx="40" cy="79" r="40" fill="white" fill-opacity="0.04"/>
<circle cx="79.5" cy="33.5" r="33.5" fill="white" fill-opacity="0.06"/>
<path d="M54.055 28.6528C50.8755 25.6909 47.2764 25.695 44.5862 26.3596C41.9061 27.0216 39.094 27.0216 36.4138 26.3596C33.7236 25.695 30.1245 25.6909 26.9449 28.6528C20.9204 34.2649 25.7683 44.29 27.2274 46.0168C28.6865 47.7436 28.7334 50.046 29.7689 54.7468C30.8044 59.4477 32.1222 63.9085 34.7579 63.237C37.3936 62.5655 38.0997 59.3038 38.7586 54.9387C38.804 54.6385 38.8511 54.3569 38.8999 54.0923C39.2349 52.2774 41.765 52.2774 42.1 54.0923C42.1487 54.3567 42.1961 54.6385 42.2415 54.9387C42.9004 59.3038 43.6064 62.5655 46.2421 63.237C48.8779 63.9085 50.1956 59.4477 51.2311 54.7468C52.2666 50.046 52.3136 47.7436 53.7727 46.0168C55.2318 44.29 60.0796 34.2649 54.055 28.6528ZM35.6539 30.8332C35.5809 31.3847 35.084 31.7721 34.5432 31.7002C34.3496 31.6758 30.053 31.1923 28.8458 35.9728C28.7307 36.4285 28.3281 36.7313 27.8866 36.7313C27.8048 36.7313 27.7217 36.721 27.6389 36.6992C27.1088 36.5602 26.7897 36.0095 26.9261 35.4693C28.2488 30.2312 32.6572 29.4039 34.8035 29.6974C35.346 29.7718 35.7266 30.2802 35.6539 30.8332Z" fill="white"/>
<defs>
<linearGradient id="paint0_linear_105_70" x1="5" y1="6" x2="74" y2="90" gradientUnits="userSpaceOnUse">
<stop stop-color="#2753F3"/>
<stop offset="1" stop-color="#765AFC"/>
</linearGradient>
</defs>
</svg>
